<?xml version="1.0" standalone="no"?>
<!DOCTYPE svg PUBLIC "-//W3C//DTD SVG 1.1//EN" "http://www.w3.org/Graphics/SVG/1.1/DTD/svg11.dtd" >
<svg xmlns="http://www.w3.org/2000/svg" xmlns:xlink="http://www.w3.org/1999/xlink" version="1.1">
<metadata></metadata>
<defs>
<font id="aqua_grotesqueregular" horiz-adv-x="418" >
<font-face units-per-em="1000" ascent="750" descent="-250" />
<missing-glyph horiz-adv-x="490" />
<glyph horiz-adv-x="0" />
<glyph unicode="&#xd;" horiz-adv-x="490" />
<glyph horiz-adv-x="0" />
<glyph horiz-adv-x="0" />
<glyph unicode=" "  horiz-adv-x="490" />
<glyph unicode="&#x09;" horiz-adv-x="490" />
<glyph unicode="&#xa0;" horiz-adv-x="490" />
<glyph unicode="!" horiz-adv-x="258" d="M77 102h104v-104h-104v104v0zM77 146v573h104v-573h-104z" />
<glyph unicode="-" d="M77 313h264v-109h-264v109z" />
<glyph unicode="." horiz-adv-x="258" d="M129 104q22 0 37 -15t15 -37t-15 -37t-37 -15q-21 0 -36.5 15t-15.5 37t15.5 37t36.5 15z" />
<glyph unicode="/" horiz-adv-x="561" d="M367 718h117l-289 -717h-118l290 717v0z" />
<glyph unicode="0" horiz-adv-x="696" d="M619 359q0 -64 -14 -127.5t-46.5 -115.5t-84.5 -84.5t-126 -32.5q-76 0 -127 32.5t-83 84.5t-46.5 115.5t-14.5 127.5q0 62 14.5 126.5t46.5 116.5t83 84t127 32q74 0 126 -32t84.5 -84t46.5 -116.5t14 -126.5zM515 359q0 54 -8 103.5t-27 87t-51.5 59.5t-80.5 22 t-80.5 -22t-51.5 -59.5t-27.5 -87t-8.5 -103.5q0 -55 8.5 -104t27.5 -87t51.5 -60t80.5 -22t80.5 22t51.5 60t27 87t8 104z" />
<glyph unicode="1" horiz-adv-x="358" d="M77 630v88h204v-718h-101v630h-103v0z" />
<glyph unicode="2" horiz-adv-x="614" d="M537 509q0 -46 -14 -78t-42 -66l-217 -278h268v-87h-455l226 298q30 39 55 71q10 14 20 27.5t18 24.5t13.5 18t6.5 9q16 28 16 61q0 25 -9.5 47.5t-27 39t-40 26.5t-47.5 10q-26 0 -48.5 -10t-39 -26.5t-26.5 -39t-10 -47.5h-102q0 43 18.5 81.5t49 67.5t72 45.5 t88.5 16.5t88 -16.5t72 -45.5t49 -67.5t18 -81.5z" />
<glyph unicode="3" horiz-adv-x="632" d="M448 438q49 -32 78 -84.5t29 -115.5q0 -50 -19 -93.5t-51 -76t-75.5 -51t-93.5 -18.5q-68 0 -126 35q-46 29 -76 75t-37 103h93h2q0 -12 3 -22q8 -23 23.5 -43t35.5 -33q37 -24 82 -24q30 0 57.5 12t47.5 31.5t32 46.5t12 58t-12 58t-32 47.5t-47.5 32t-57.5 11.5 q-34 0 -67 -16l38 87l9 19l69 156h-248v85h389l-115 -252q31 -11 57 -28z" />
<glyph unicode="4" horiz-adv-x="703" d="M626 162v-88h-86v-76h-99v76h-364l463 643v-555h86v0zM441 430l-188 -268h188v268v0z" />
<glyph unicode="5" horiz-adv-x="615" d="M242 632l-15 -130q10 3 20 3.5t22 0.5q55 0 104 -20t86 -54.5t58 -80.5t21 -99q0 -52 -19.5 -98t-55.5 -80.5t-85.5 -54.5t-108.5 -20q-62 0 -109.5 21t-82.5 54l57 67q26 -25 63 -39.5t72 -14.5t65 13t52 35t34.5 52.5t12.5 64.5t-14 64t-38 52.5t-55.5 35t-65.5 12.5 q-44 0 -74 -13t-56 -35l39 350h332v-86h-259z" />
<glyph unicode="6" horiz-adv-x="611" d="M305 447q48 0 89.5 -17.5t72.5 -48.5t49 -71.5t18 -88.5q0 -46 -18 -86t-49 -70.5t-72.5 -48t-89.5 -17.5q-47 0 -89 17.5t-72.5 48t-48.5 70.5t-18 86q0 36 10 67t29 59l116 173l132 197h1h35h77l-175 -265l-1 1l-4 -6h8zM307 91q25 0 47 10t39 27.5t26.5 41.5t9.5 52 q0 29 -9.5 53t-26.5 41.5t-39 28t-47 10.5q-26 0 -48.5 -10.5t-39.5 -28t-27 -41.5t-10 -53q0 -28 10 -52t27 -41.5t39.5 -27.5t48.5 -10z" />
<glyph unicode="7" horiz-adv-x="641" d="M460 718h104l-369 -718h-1h-106l34 65l290 566h-335v87h383v0z" />
<glyph unicode="8" horiz-adv-x="598" d="M77 205q0 53 27.5 97.5t71.5 72.5q-34 26 -54 65t-20 86q0 39 15 74.5t42 61.5t63.5 41t77.5 15t77.5 -15t62.5 -41t42 -61.5t16 -74.5q0 -47 -20.5 -86t-55.5 -65q44 -28 71.5 -72.5t27.5 -97.5q0 -42 -17.5 -79.5t-47.5 -65t-70.5 -43.5t-85.5 -16q-46 0 -87 16 t-70.5 43.5t-47.5 65t-18 79.5zM180 209q0 -26 9.5 -47t25.5 -36.5t37.5 -24.5t47.5 -9q24 0 46 9t38 24.5t25 36.5t9 47q0 24 -9 45.5t-25 38t-38 25t-46 8.5q-26 0 -47.5 -8.5t-37.5 -25t-25.5 -38t-9.5 -45.5zM199 524q0 -45 28.5 -74t72.5 -29q43 0 72 29t29 74 q0 46 -29 75t-72 29q-44 0 -72.5 -29t-28.5 -75z" />
<glyph unicode="9" horiz-adv-x="611" d="M307 270q-48 0 -90 18t-72.5 49t-49 71.5t-18.5 87.5q0 45 18.5 85.5t49 71t72.5 48t90 17.5q47 0 88 -17.5t72 -48t49 -71t18 -85.5q0 -35 -10 -66.5t-28 -59.5l-117 -173l-131 -197h-1h-35h-78l176 266h1l3 4h-7zM305 626q-26 0 -48 -10t-38.5 -28t-26.5 -42t-10 -51 q0 -29 10 -53t26.5 -41.5t38.5 -27.5t48 -10q25 0 47.5 10t40 27.5t27 41.5t9.5 53q0 27 -9.5 51t-27 42t-40 28t-47.5 10z" />
<glyph unicode="&#x3c;" horiz-adv-x="463" d="M222 257l81 -81l83 -83l-72 -72l-11 10l-153 153l-73 73l73 72l153 153l11 11l72 -72l-83 -83l-81 -81v0z" />
<glyph unicode="&#x3e;" horiz-adv-x="463" d="M241 257l-80 81l-84 83l73 72l11 -11l153 -153l72 -72l-72 -73l-153 -153l-11 -10l-73 72l84 83l80 81v0z" />
<glyph unicode="?" horiz-adv-x="600" d="M523 501q0 -53 -24.5 -99t-68.5 -78l-4 -3q-34 -22 -73 -32v-126h-105v109v80v19q12 0 23 1t23.5 2.5t24.5 4.5q1 0 1.5 0.5t1.5 0.5q15 4 31 12q29 17 47.5 45.5t18.5 63.5q0 25 -10 47.5t-28 40t-42.5 27t-52.5 9.5q-44 0 -79 -23.5t-48 -61.5l-82 63q31 53 87 85.5 t123 32.5q49 0 92 -17t75 -47.5t50.5 -70.5t18.5 -85zM301 104q21 0 36.5 -15t15.5 -37q0 -23 -15.5 -37.5t-36.5 -14.5q-23 0 -38 14.5t-15 37.5q0 22 15 37t38 15z" />
<glyph unicode="A" horiz-adv-x="740" d="M77 1l293 718l293 -718h-106l-22 57h-328l-23 -57h-107zM242 149h257l-129 329z" />
<glyph unicode="B" horiz-adv-x="643" d="M471 380q43 -23 69 -67.5t26 -101.5q0 -43 -16.5 -81.5t-45 -67.5t-66.5 -45.5t-81 -16.5h-280v718h275q39 0 74.5 -15t61.5 -41.5t41.5 -62t15.5 -75.5q0 -24 -6.5 -45t-16.5 -39t-23.5 -33t-27.5 -27zM182 421h152q22 0 40.5 8t32 22.5t21.5 33t8 38.5q0 44 -29.5 73.5 t-72.5 29.5h-152v-205zM339 92q25 0 46.5 10t37.5 26t25.5 37.5t9.5 45.5t-9.5 45.5t-25.5 38t-37.5 25.5t-46.5 9h-157v-237h157z" />
<glyph unicode="C" horiz-adv-x="795" d="M432 99q63 0 115.5 30t85.5 80l85 -64q-49 -67 -123 -106t-163 -39q-73 0 -138 28.5t-113 77t-76 113.5t-28 140q0 74 28 139.5t76 114t113 76.5t138 28q89 0 163 -39t123 -106l-85 -63q-33 50 -85.5 79.5t-115.5 29.5q-51 0 -95.5 -20.5t-78 -55.5t-53 -82t-19.5 -101 t19.5 -101t53 -82.5t78 -56t95.5 -20.5z" />
<glyph unicode="D" horiz-adv-x="753" d="M328 718q73 0 136 -28t110 -77t74.5 -114.5t27.5 -139.5q0 -75 -26.5 -140t-73 -113.5t-110 -77t-138.5 -28.5h-251v718h251zM317 92q54 0 100.5 21t79.5 57.5t51.5 85t18.5 103.5t-18.5 103.5t-52 84.5t-80 57t-99.5 21h-135v-533h135z" />
<glyph unicode="E" horiz-adv-x="578" d="M181 275v-170h320v-103h-424v715h417v-100h-313v-113v-59v-72h282v-98h-282v0z" />
<glyph unicode="F" horiz-adv-x="573" d="M77 0v718h419v-101h-314v-99v-90v-56h268v-98h-268v-102v-172h-105v0z" />
<glyph unicode="G" horiz-adv-x="865" d="M786 399q1 -11 1.5 -21t0.5 -19q0 -14 -1 -27t-3 -25q-9 -65 -40 -121.5t-77.5 -97.5t-106 -64.5t-127.5 -23.5q-73 0 -138.5 28.5t-113.5 77t-76 113.5t-28 140q0 74 28 139.5t76 114t113.5 76.5t138.5 28q56 0 106.5 -16t92.5 -45.5t75 -70t53 -88.5h-120 q-32 55 -86.5 88t-120.5 33q-51 0 -96 -20.5t-78.5 -55.5t-53 -82t-19.5 -101t19.5 -101t53 -82.5t78.5 -56t96 -20.5q44 0 84.5 15.5t72 43.5t53.5 66.5t31 82.5h-251v92h253h110v0z" />
<glyph unicode="H" horiz-adv-x="643" d="M462 594v124h104v-717h-104v128v94h-280v-94v-128h-105v717h105v-124v-184v-92v-2h280v2v92v184v0z" />
<glyph unicode="I" horiz-adv-x="259" d="M77 0v718h105v-718h-105v0z" />
<glyph unicode="J" horiz-adv-x="491" d="M312 720h103v-526q0 -40 -15.5 -75.5t-41.5 -62t-60.5 -41.5t-75.5 -15q-44 0 -81 16.5t-64 48.5l81 64q13 -13 29 -19.5t35 -6.5t35 7t28.5 19t19.5 28.5t7 35.5v527z" />
<glyph unicode="K" horiz-adv-x="638" d="M540 718l-204 -275l226 -442h-111l-181 354l-89 -120v-234h-104v717h104v-325l239 325h120v0z" />
<glyph unicode="L" horiz-adv-x="552" d="M182 718v-616h293v-103h-398v719h105v0z" />
<glyph unicode="M" horiz-adv-x="892" d="M446 223l236 495l133 -719h-106l-70 399l-193 -412l-192 412l-70 -399h-107l134 719l235 -495v0z" />
<glyph unicode="N" horiz-adv-x="718" d="M176 452v-454h-99v732l465 -556v543h99v-719h-96l-369 454v0z" />
<glyph unicode="O" horiz-adv-x="871" d="M435 721q75 0 140.5 -28.5t114 -77.5t76.5 -115t28 -141t-28 -140.5t-76.5 -114.5t-114 -77.5t-140.5 -28.5q-74 0 -139.5 28.5t-114 77.5t-76.5 114.5t-28 140.5t28 141t76.5 115t114 77.5t139.5 28.5zM435 98q51 0 96.5 20.5t79.5 56t53.5 83t19.5 101.5t-19.5 102 t-53.5 83.5t-79.5 56t-96.5 20.5t-96 -20.5t-79 -56t-53.5 -83.5t-19.5 -102t19.5 -101.5t53.5 -83t79 -56t96 -20.5z" />
<glyph unicode="P" horiz-adv-x="659" d="M580 491q1 -6 1.5 -12t0.5 -13v0v-1q0 -7 -0.5 -13t-1.5 -12v-1l-3 -23q-1 -1 -1 -4q-1 -5 -2 -9t-3 -9q-13 -45 -40 -80.5t-65 -59.5q-33 -20 -72 -31t-83 -11h-129v-213h-105v720h234q88 0 155 -42q38 -24 65 -59.5t40 -79.5q4 -11 5 -19q0 -3 1 -4q1 -5 1.5 -11 t1.5 -11v-2zM323 304q33 0 60 13.5t47 36t31 51.5t11 61q0 31 -11 60t-31 51.5t-47 36t-60 13.5h-140v-323h140z" />
<glyph unicode="Q" horiz-adv-x="873" d="M436 718q75 0 140.5 -28t114 -77t77 -114.5t28.5 -139.5q0 -77 -29.5 -142.5t-80.5 -115.5h110v-101h-359h-1q-74 0 -139.5 28.5t-114 77t-77 113.5t-28.5 140q0 74 28.5 139.5t77 114.5t114 77t139.5 28zM439 101q53 0 99.5 20.5t81.5 56t55 82t20 99.5q0 54 -20 101 t-55.5 82t-82.5 55t-101 20q-53 0 -100 -20t-82 -55t-55.5 -82t-20.5 -101q0 -53 20.5 -100t55.5 -82.5t82 -55.5t100 -20h3z" />
<glyph unicode="R" horiz-adv-x="658" d="M571 393q-13 -44 -40 -79.5t-66 -59.5q-2 -2 -5 -3t-5 -3l126 -249h-111l-110 217q-12 -2 -24 -3t-25 -1h-129v-213h-105v720h234q44 0 82.5 -11t71.5 -31q79 -50 106 -140q1 -5 2 -9t3 -9v-5q2 -4 2.5 -10t1.5 -12v-1q1 -6 1 -12v-13v0v-2v-12t-1 -12v-2 q-1 -6 -1.5 -11.5t-2.5 -10.5v-4q-4 -11 -5 -19zM323 304q33 0 60 13.5t46.5 36t31 51.5t11.5 61q0 30 -11.5 59.5t-31 51.5t-46.5 35.5t-60 13.5h-140v-322h140z" />
<glyph unicode="S" horiz-adv-x="620" d="M471 358q7 -5 13 -11.5t11 -12.5q22 -28 35 -62t13 -71q0 -9 -1 -14q-3 -55 -33 -99q-28 -41 -71 -65t-96 -24h-65q-53 0 -96 24t-70 65q-8 12 -16 28l91 70q3 -18 12.5 -34.5t23 -28.5t31 -19t37.5 -7h39q40 0 69.5 26t35.5 64q0 4 0.5 8t0.5 8q0 21 -8 40t-21.5 33 t-32 23t-39.5 10h-56h-4q-36 1 -68 14t-57 36q-14 9 -24 23q-22 29 -35 62.5t-13 70.5v14q5 56 35 99q27 41 70 65t96 24h64q53 0 96.5 -24t71.5 -65q3 -5 6 -10.5t6 -10.5l-89 -70q-9 35 -37 58.5t-66 23.5h-39q-20 0 -38 -6.5t-31.5 -19t-23 -29t-12.5 -35.5q-1 -4 -1 -8 v-7q0 -22 8 -40.5t21.5 -33t32.5 -23t39 -9.5h56h4q36 -1 68 -14.5t57 -35.5z" />
<glyph unicode="T" horiz-adv-x="613" d="M77 618v100h459v-100h-177v-617h-104v617h-178v0z" />
<glyph unicode="U" horiz-adv-x="638" d="M459 718h103v-480q0 -50 -19.5 -93t-52.5 -75t-77.5 -50.5t-94.5 -18.5t-94 18.5t-76.5 50.5t-51.5 75t-19 93v480h103v-480q0 -28 11 -53t29.5 -44t44 -30t53.5 -11q30 0 55.5 11t44.5 30t30 44t11 53v480z" />
<glyph unicode="V" horiz-adv-x="738" d="M369 267l184 450h109l-293 -721l-292 721h109l183 -450v0z" />
<glyph unicode="W" horiz-adv-x="1029" d="M661 269l183 450h109l-292 -721l-146 361l-146 -361l-292 721h109l183 -450l92 224l-92 226h108l38 -92l54 -134l92 -224v0z" />
<glyph unicode="X" horiz-adv-x="626" d="M437 717h112v-1v0l-181 -357l181 -360v0v-1h-111l-125 249l-125 -249h-111v1v0l181 360l-181 357v0v1h112l124 -248l124 248v0z" />
<glyph unicode="Y" horiz-adv-x="704" d="M512 719h115v-1v0l-222 -484v-235v-1h-105v1v235l-223 484h1l-1 1h117l159 -384l159 384v0z" />
<glyph unicode="Z" horiz-adv-x="612" d="M534 717h1l-292 -615h291v-1v-102v-1h-457v1v0l290 618h-250v0v100v1h418l-1 -1v0z" />
<glyph unicode="\" horiz-adv-x="561" d="M195 718l289 -717h-117l-290 717h118v0z" />
<glyph unicode="_" horiz-adv-x="569" d="M77 -1h415v-109h-415v109v0z" />
<glyph unicode="a" horiz-adv-x="663" d="M324 516q54 0 101.5 -20.5t83.5 -55.5t56.5 -83t20.5 -102v-254h-102v48q-33 -25 -73.5 -40t-86.5 -15q-54 0 -101.5 20.5t-82.5 56t-55.5 83t-20.5 101.5t20.5 102t55.5 83t82.5 55.5t101.5 20.5zM324 96q34 0 63 13t50.5 34.5t34 50t12.5 61.5t-12.5 62t-34 50.5 t-50.5 34.5t-63 13q-33 0 -62 -13t-50.5 -34.5t-34 -50.5t-12.5 -62t12.5 -61.5t34 -50t50.5 -34.5t62 -13z" />
<glyph unicode="b" horiz-adv-x="672" d="M336 516q54 0 101 -20t82.5 -55t55.5 -82t20 -101t-20 -101t-55.5 -82.5t-82.5 -55.5t-101 -20t-101 20t-82 55.5t-55.5 82.5t-20.5 101v1v603h100v-399q34 25 74 39t85 14zM336 100q32 0 61 12t50.5 34t34 50.5t12.5 61.5q0 32 -12.5 61t-34 50.5t-50.5 34t-61 12.5 t-61 -12.5t-50.5 -34t-34.5 -50t-13 -60.5v-1q0 -33 13 -61.5t34.5 -50.5t50.5 -34t61 -12z" />
<glyph unicode="c" horiz-adv-x="616" d="M335 100q38 0 70.5 16.5t54.5 44.5l79 -62q-35 -45 -88 -72t-116 -27q-53 0 -100 20t-82 55.5t-55.5 82.5t-20.5 101q0 53 20.5 100t55.5 82t82 55t100 20q63 0 116 -26t88 -73l-79 -61q-22 28 -54.5 44t-70.5 16q-32 0 -61 -12t-50.5 -33.5t-34 -50.5t-12.5 -61 q0 -33 12.5 -61.5t34 -50.5t50.5 -34.5t61 -12.5z" />
<glyph unicode="d" horiz-adv-x="672" d="M595 258q0 -54 -20 -101t-55.5 -82.5t-82.5 -55.5t-101 -20t-101 20t-82 55.5t-55.5 82.5t-20.5 101t20.5 101t55.5 82t82 55t101 20q45 0 85 -14t73 -39v399h101v-603v-1zM336 100q32 0 61 12t50.5 34t34 50.5t12.5 61.5v1q0 32 -12.5 60.5t-34 50t-50.5 34t-61 12.5 t-61 -12.5t-50.5 -34t-34.5 -50.5t-13 -61q0 -33 13 -61.5t34.5 -50.5t50.5 -34t61 -12z" />
<glyph unicode="e" horiz-adv-x="672" d="M378 224h-197q6 -26 20.5 -49t35 -39.5t46 -26t53.5 -9.5q34 0 64 13.5t53 38.5h18h100q-6 -15 -14 -28t-18 -26q-35 -45 -88 -72t-115 -27q-54 0 -101 20t-82 55.5t-55.5 82.5t-20.5 101t20.5 101t55.5 82t82 55t101 20q62 0 115 -26.5t88 -73.5q32 -39 47 -92 q9 -31 9 -66q0 -18 -3 -34h-102h-112zM336 416q-48 0 -85.5 -25t-57.5 -67h228h58q-5 8 -9 16t-9 15q-23 28 -55.5 44.5t-69.5 16.5z" />
<glyph unicode="f" horiz-adv-x="414" d="M214 465h123v-100h-123v-74v-187v-105h-100v292v74h-37v100h37v153v36q4 53 30.5 97.5t69.5 72.5v-1q26 18 57.5 27.5t65.5 9.5v-100q-25 0 -47.5 -9.5t-39.5 -26t-26.5 -39.5t-9.5 -48v-172z" />
<glyph unicode="g" horiz-adv-x="709" d="M516 -20q18 -1 38 -9t38 -26t29 -45t11 -67t-11.5 -68t-29.5 -45t-38.5 -25t-38.5 -8h-244q-35 1 -69 10t-61.5 27.5t-45 46t-17.5 64.5h102q0 -15 14.5 -24.5t31.5 -14t31.5 -6l14.5 -1.5h242q18 2 18 44q0 15 -2.5 24.5t-6 14.5t-6 6t-3.5 1h-243q-35 0 -69 9t-61.5 27 t-45 45.5t-17.5 65.5q0 42 21.5 71t53.5 47q-25 29 -38.5 66t-13.5 78q0 47 17.5 88t48.5 72t71.5 48.5t87.5 17.5h4h254v-100h-69q18 -28 28 -60t10 -66q0 -45 -17 -85t-45 -70t-67.5 -48.5t-83.5 -21.5h-14h-105q-16 -5 -28.5 -14t-12.5 -23q0 -16 14.5 -25t31 -14t31 -6 l14.5 -1h246zM325 414q-25 0 -48 -10t-40 -27t-26.5 -40t-9.5 -49q0 -25 9.5 -48t26.5 -40t40 -26.5t48 -9.5q27 0 49.5 9.5t39.5 26.5t27 40t10 48q0 26 -10 49t-27 40t-39.5 27t-49.5 10z" />
<glyph unicode="h" horiz-adv-x="605" d="M427 480q46 -30 73.5 -79.5t27.5 -108.5v-294h-101v106v188q0 26 -9.5 48.5t-27 39.5t-40 26.5t-47.5 9.5q-26 0 -49 -9.5t-39.5 -26.5t-26.5 -39.5t-10 -48.5v-188v-106h-101v294v573h101v-385q27 18 59 27.5t66 9.5t66 -9.5t58 -27.5z" />
<glyph unicode="i" horiz-adv-x="286" d="M93 517h100v-517h-100v517v0zM93 570v100h100v-100h-100z" />
<glyph unicode="j" horiz-adv-x="286" d="M93 516h100v-828h-100v828v0zM93 570v100h100v-100h-100z" />
<glyph unicode="k" horiz-adv-x="531" d="M241 288l213 -290h-125l-150 206l-2 -2v-201h-100v234v107v173v334h100v-334v-140l2 -2l103 142h125l-166 -227v0z" />
<glyph unicode="l" horiz-adv-x="286" d="M93 5v855h100v-855h-100v0z" />
<glyph unicode="m" horiz-adv-x="957" d="M779 482q46 -30 73.5 -79.5t27.5 -108.5v-295h-101v106v189q0 25 -9.5 48t-27 40t-40 26.5t-47.5 9.5q-26 0 -49 -9.5t-40 -26.5t-27 -40t-10 -48v-189v-106h-101v106v189q0 25 -9.5 48t-27 40t-40 26.5t-47.5 9.5q-26 0 -49 -9.5t-40 -26.5t-27 -40t-10 -48v-189v-106 h-101v295v225h101v-37q28 18 60 27.5t66 9.5t66 -9.5t58 -27.5q29 -18 51 -47q22 28 50 47q28 18 59.5 27.5t66.5 9.5q34 0 66 -9.5t58 -27.5z" />
<glyph unicode="n" horiz-adv-x="607" d="M428 483q47 -31 74.5 -80.5t27.5 -108.5v-295h-102v107v188q0 25 -9.5 48.5t-27 40.5t-40 26.5t-47.5 9.5q-26 0 -49 -9.5t-39.5 -26.5t-26.5 -40.5t-10 -48.5v-188v-107h-102v295v226h102v-37q27 18 59 27.5t66 9.5t66 -9.5t58 -27.5z" />
<glyph unicode="o" horiz-adv-x="672" d="M336 517q54 0 101 -20t82.5 -55t55.5 -82t20 -101t-20 -101t-55.5 -82.5t-82.5 -55.5t-101 -20t-101 20t-82 55.5t-55.5 82.5t-20.5 101t20.5 101t55.5 82t82 55t101 20zM336 101q32 0 61 12t50.5 34t34 50.5t12.5 61.5q0 32 -12.5 61t-34 50.5t-50.5 33.5t-61 12 t-61 -12t-50.5 -33.5t-34.5 -50.5t-13 -61q0 -33 13 -61.5t34.5 -50.5t50.5 -34t61 -12z" />
<glyph unicode="p" horiz-adv-x="674" d="M337 518q54 0 101 -20.5t82.5 -55.5t56 -82t20.5 -101t-20.5 -101t-56 -82.5t-82.5 -56t-101 -20.5q-45 0 -85 14.5t-74 40.5v-402h-101v606v1q0 54 20.5 101t55.5 82t82.5 55.5t101.5 20.5zM337 100q32 0 61 12.5t50.5 34.5t34.5 50.5t13 61.5q0 32 -13 61t-34.5 50.5 t-50.5 34t-61 12.5q-33 0 -62 -12.5t-50.5 -34t-34 -50.5t-12.5 -61v-1q0 -33 13 -61.5t34.5 -50.5t50.5 -34t61 -12z" />
<glyph unicode="q" horiz-adv-x="674" d="M597 258v-607h-101v402q-33 -26 -73.5 -40.5t-85.5 -14.5q-54 0 -101 20.5t-82 56t-56 83t-21 101.5t21 101t56 82t82 55.5t101 20.5t101.5 -20.5t83 -55.5t55.5 -82t20 -101v-1zM337 100q32 0 61 12t50.5 34t34.5 50.5t13 61.5v1q0 32 -12.5 61t-34 50.5t-50.5 34 t-62 12.5q-32 0 -61 -12.5t-50.5 -34t-34.5 -50.5t-13 -61q0 -34 13 -62.5t34.5 -50.5t50.5 -34t61 -12z" />
<glyph unicode="r" horiz-adv-x="503" d="M424 478q34 -21 57 -54l-57 -45l-21 -17q-17 24 -44 39t-58 15q-26 0 -48.5 -10t-39 -26.5t-26.5 -39t-10 -48.5v-186v-105h-100v291v223h100v-37q27 18 58.5 27.5t65.5 9.5t65.5 -9.5t57.5 -27.5z" />
<glyph unicode="s" horiz-adv-x="469" d="M363 239q13 -19 21 -42.5t7 -48.5q-1 -32 -14.5 -59.5t-36 -48t-53 -32t-64.5 -10.5q-47 2 -84.5 24.5t-57.5 59.5l85 59q5 -18 21.5 -30t38.5 -12q26 -1 45 14t19 38q0 7 -1 10v2q-1 2 -1 3.5t-1 3.5q-7 16 -25 27q-3 2 -9 4l1 1q-14 8 -30.5 15t-34 15.5t-34 18 t-31.5 21.5v1l-2 3q-21 20 -33 46t-11 55q1 30 14 55.5t34 44t49.5 29t60.5 9.5q42 -1 76 -20t54 -50l-83 -57q-6 11 -19 19t-30 8q-22 1 -38.5 -11t-16.5 -29q0 -5 1 -7q2 -10 10 -18t20 -13q18 -11 42 -22t49 -25q17 -8 35 -22l5 -5q10 -9 22 -24z" />
<glyph unicode="t" horiz-adv-x="444" d="M368 660v-100h-95v-561h-101v561h-95v100h95v193h101v-193h95v0z" />
<glyph unicode="u" horiz-adv-x="603" d="M526 515v-293q0 -58 -27 -107t-73 -80q-27 -17 -58.5 -27t-65.5 -10t-65.5 10t-59.5 27q-45 31 -72.5 80t-27.5 107v293h100v-105v-188q0 -25 10 -47.5t26.5 -39t39.5 -26.5t49 -10q25 0 47.5 10t40 26.5t27 39t9.5 47.5v188v105h100z" />
<glyph unicode="v" horiz-adv-x="605" d="M419 515h109l-170 -391l-55 -125l-55 125l-171 391h109l117 -266l116 266v0z" />
<glyph unicode="w" horiz-adv-x="838" d="M652 518h109l-172 -395l-55 -126l-56 126l-59 135l-58 -135l-55 -126l-55 126l-174 395h111l118 -268l59 134l54 127l56 -127l59 -134l118 268v0z" />
<glyph unicode="x" horiz-adv-x="628" d="M551 517l-177 -263l170 -253h-121l-109 163l-109 -163h-121l170 253l-177 263h121l116 -173l116 173h121v0z" />
<glyph unicode="y" horiz-adv-x="702" d="M509 515h116l-227 -471l-60 -124l-121 -253h-117l183 380l-206 468h115l151 -343l166 343v0z" />
<glyph unicode="z" horiz-adv-x="612" d="M513 516l-62 -100l-194 -317h256v-100h-318h-118l62 100l194 317h-256v101h318h118v-1v0z" />
<glyph unicode="|" horiz-adv-x="263" d="M77 -1v720h109v-720h-109v0z" />
<glyph unicode="&#xa1;" horiz-adv-x="258" d="M181 615h-104v104h104v-104v0zM181 571h-104v-573h104v573v0z" />
<glyph unicode="&#xad;" d="M77 313h264v-109h-264v109z" />
<glyph unicode="&#xbf;" horiz-adv-x="599" d="M77 220q0 51 24.5 97.5t69.5 77.5l3 3q33 22 74 32v127h104v-110v-79v-20q-11 0 -23 -1q-11 -1 -23.5 -2t-25.5 -4q-1 -1 -3 -1q-7 -2 -14.5 -5t-14.5 -7q-30 -16 -48.5 -45t-18.5 -63q0 -26 10.5 -49t28.5 -39.5t42.5 -26.5t52.5 -10q44 0 78 24t48 61l81 -61 q-30 -54 -85.5 -86.5t-122.5 -32.5q-49 0 -92.5 17t-75 47t-50.5 69.5t-19 86.5zM300 615q-22 0 -37 15.5t-15 36.5q0 22 15 37t37 15q21 0 36.5 -15t15.5 -37q0 -21 -15.5 -36.5t-36.5 -15.5z" />
<glyph unicode="&#xff;" horiz-adv-x="816" />
<glyph unicode="&#x2000;" horiz-adv-x="432" />
<glyph unicode="&#x2001;" horiz-adv-x="865" />
<glyph unicode="&#x2002;" horiz-adv-x="432" />
<glyph unicode="&#x2003;" horiz-adv-x="865" />
<glyph unicode="&#x2004;" horiz-adv-x="288" />
<glyph unicode="&#x2005;" horiz-adv-x="216" />
<glyph unicode="&#x2006;" horiz-adv-x="144" />
<glyph unicode="&#x2007;" horiz-adv-x="144" />
<glyph unicode="&#x2008;" horiz-adv-x="108" />
<glyph unicode="&#x2009;" horiz-adv-x="173" />
<glyph unicode="&#x200a;" horiz-adv-x="48" />
<glyph unicode="&#x2010;" d="M77 313h264v-109h-264v109z" />
<glyph unicode="&#x2011;" d="M77 313h264v-109h-264v109z" />
<glyph unicode="&#x2012;" d="M77 313h264v-109h-264v109z" />
<glyph unicode="&#x2013;" d="M77 313h264v-109h-264v109z" />
<glyph unicode="&#x2014;" horiz-adv-x="569" d="M77 314h415v-109h-415v109v0z" />
<glyph unicode="&#x202f;" horiz-adv-x="173" />
<glyph unicode="&#x205f;" horiz-adv-x="216" />
<glyph unicode="&#x25fc;" horiz-adv-x="519" d="M0 519h519v-519h-519v519z" />
</font>
</defs>
</svg>
